<?xml version="1.0" encoding="utf-8"?>
<!-- Generator: Adobe Illustrator 20.0.0, SVG Export Plug-In . SVG Version: 6.00 Build 0)  -->
<svg version="1.1" id="Calque_1" xmlns="http://www.w3.org/2000/svg" xmlns:xlink="http://www.w3.org/1999/xlink" x="0px" y="0px"
	 viewBox="0 0 2560 1489.7" style="enable-background:new 0 0 2560 1489.7;" xml:space="preserve">
<style type="text/css">
	.st0{fill:#FF6E3D;}
	.st1{clip-path:url(#SVGID_2_);fill:#FF977B;}
	.st2{clip-path:url(#SVGID_4_);fill:#FF977B;}
</style>
<path class="st0" d="M2561,1501.7H1.1l4-1059.4c0,0,4-1.1,11.2-2.9c2.4-0.6,5.1-1.4,8.2-2.2C73,421.7,122,415.7,174,409.7
	c11-1,20-9,30-15c24-14,50-18,74.3-30.9c3.4-1.7,6.7-3.4,10-5.2c6.6-3.6,13.2-7.6,19.7-11.8c7-4,14-8,21-6c17,5,32,10,49,3
	c2.5-0.6,3.8-1,3.8-1s5.1-2.9,14.4-8.2c1.9-1.1,3.9-2.2,6.2-3.5c25.6-15.4,55.6-18.4,82.6-29.4c2-1,4.3-2,6.1-3.3
	c1.8-1.3,3.4-2.8,3.9-4.7c35-31,75-56,121-70c8-2,17-4,21-11c12.8-20.4,31.1-33,50.4-43.9c3-1.7,6-3.3,9.5-4.7
	c35.2-10.5,66.2-27.5,97.2-49.5c36-25.5,69.8-49.3,106.3-67.6c3-1.5,6.1-3,9.2-4.5c17.6-8.2,36.1-20.3,55.2-21.3
	c3.2-0.2,6.4,0,9.6,0.5c2.7,0.8,6.7,0.8,9.7,2.8c8.3,8.3,17,14.9,26.1,21c2.3,1.5,4.6,3,6.9,4.5c10,6.2,18.6,12.8,27.6,18.3
	c1.8,1.1,3.6,2.2,5.4,3.2c45,28,89,55,124,98c5,7,18,1,24,2c31,7,34,46,54,67c8,7,22,3,29,8c38,28,77,50,119,69
	c9,4.5,16.6,10.5,23.6,17.3c2.3,2.3,4.6,4.6,6.9,7.1c18.5,22.1,39.8,45.4,69.4,51.3c3.4,0.6,6.8,1,10.5,1.1
	c3.9-6.3,9.5-9.6,15.9-11.5c6.4-1.9,13.6-2.4,21.2-3.1c2.6-0.1,5.7-0.2,8.9-0.6c3.3-0.3,6.6-0.8,9.8-1.4c9.4-1.7,16.9-7.3,23.4-14.4
	c2.3-2.4,4.7-5,7.3-7.6c1.6-2.2,3.7-4.1,6-6c2.5-1.9,5.3-3.6,8.3-5.2c11.9-8.2,31.4-11.4,46.3-17.7c3-1.3,5.8-2.7,8.3-4.3
	c12.7-13.1,28-22.4,42.1-32.8c2.8-2.1,5.6-4.3,8.4-6.6c23.8-23.6,56.8-34.6,80.8-56.6c1-1.5-0.5-5.8-1.4-10.8
	c-4.6-14.2,8.4-21.2,18.4-26.2c18-9,41-11,53-28c1.6-2.4,3.3-4.7,4.9-6.9c1.7-2.3,3.4-4.5,5.1-6.6c27.6-33.1,77.5-75.6,118.9-61.7
	c3.2,1.1,6.3,2.5,9.5,4.2c8.8,5.6,18.2,6.9,27.7,6.7c3.2-0.1,6.4-0.4,9.8-0.7c31.7-7.7,62.3-3.7,92.2,4.4c3.4,0.9,6.7,1.9,10.1,2.8
	c30.7,8.2,60.1,17.9,87,35.9c2.7,1.8,5.4,3.7,8,5.7c8.8,10.2,22.8,8.2,33.8,15.2c2,2,1,6,3,9c1.6,2.4,3.3,4.7,4.9,7s3.3,4.6,5.3,6.8
	c2.6,2,5.3,3.8,8.3,5.3c2.9,1.5,6,2.9,9.1,4.1c10.1,4.4,22.6,6.5,35.6,8c6.5,0.8,13.1,1.4,19.6,2.1c27.9,5.7,56.8,20.1,78.4,40.9
	c2.5,2.5,4.9,5.1,7.4,7.9c5.5,6.9,10.5,13.9,16.5,19.9c-3,0-4,4-7,3c18,8,39,10,53,21c12,9,1,42,22,49c5,1,10-5,14-3
	c11,4.5,14,13.8,15.5,24.1c0.5,3.5,0.8,7,1.2,10.6c2.3,9.3-2.7,20.3,4.3,28.3c3,2-1,8-2,12c-2,18,1,36-2.7,54
	c0.1,3.8,0.6,7.6,0.6,11.2c0,3.4,0,6.9,0,10.4C2561,777,2561,1501.7,2561,1501.7z"/>
<g>
	<g>
		<defs>
			<path id="SVGID_1_" d="M969.8,0c0,0,4.3,68,8.3,131.2c0.2,2.6,0.3,5.3,0.5,7.9c-0.6,13.7,7.4,29.7-1.6,39.7
				c-6,6.5-16,13-22.8,20.5c-2.3,2.5-4.2,5.2-5.5,8c-1.9,3.7-3.1,7.6-3.7,11.6s-0.6,7.9-0.1,11.9c-30,2-33,41-45,63c-1,1-3,3-6,2
				c17,21,44,9,64.9,3.4c3.5-0.8,6.9-1.7,10.3-2.8c5.1-1.7,10-3.9,14.8-6.6c2.4-1.4,4.8-2.8,7.1-4.4c1.8-1.5,4.8-3.5,6.8-4.5
				c20-1,44,18,60,1c5.5-5.5,8.3-13.3,11.8-20.1c1.3-2.1,2.7-4.2,4.4-6c12.8-9.9,31.8-11.9,43.8-8.9c5.3,1.3,10.2,4.2,14.9,8
				c2.3,1.9,4.6,4,6.7,6.3c2.4,1.8,4.4,4.8,5.4,7.8c1.3,3,2.3,6.1,3.2,9.1c0.9,3.1,1.7,6.2,2.4,9.3c7.4,23.5-19.6,44.5-16.6,60.5
				c0.7,2.7,1.8,5,3.3,7c1.5,2,3.3,3.6,5.4,5c22,10.5,46.2,12.7,69.5,8.9c3.4-0.5,6.7-1.2,10.1-2c9.8-2.8,19.8-5.8,30.8-4.8
				c15,2,29,2,43,4c3,0.7,6,1.3,9.1,2c3.3,0.8,6.5,1.6,9.9,2.6c26,7.4,46,28.4,73,34.4c29,8,54,19,83,25c12,3,29-2,44.5-0.8
				c2.8,0.3,5.6,0.5,8.4,0.8c42.1,3,84.1,14,127.1,11c2,0,5.1-4,5.4-7c-0.4-7,2.6-13,7.6-16c25.5-15.8,51-29.3,68.1-51.9
				c1.9-2.5,3.7-5.2,5.5-8c5.4-10.1,11.4-20.1,18.4-29.1c18-20,42-31,58-53c23-33,37-68,60-98.5c1.6-2.3,3.1-4.5,4.7-6.7
				c18.5-26.4,33.2-47.5,33.2-47.5L969.8,0z"/>
		</defs>
		<clipPath id="SVGID_2_">
			<use xlink:href="#SVGID_1_"  style="overflow:visible;"/>
		</clipPath>
		<path class="st1" d="M2561,1501.7H1.1l4-1059.4c0,0,4-1.1,11.2-2.9c2.4-0.6,5.1-1.4,8.2-2.2C73,421.7,122,415.7,174,409.7
			c11-1,20-9,30-15c24-14,50-18,74.3-30.9c3.4-1.7,6.7-3.4,10-5.2c6.6-3.6,13.2-7.6,19.7-11.8c7-4,14-8,21-6c17,5,32,10,49,3
			c2.5-0.6,3.8-1,3.8-1s5.1-2.9,14.4-8.2c1.9-1.1,3.9-2.2,6.2-3.5c25.6-15.4,55.6-18.4,82.6-29.4c2-1,4.3-2,6.1-3.3
			c1.8-1.3,3.4-2.8,3.9-4.7c35-31,75-56,121-70c8-2,17-4,21-11c12.8-20.4,31.1-33,50.4-43.9c3-1.7,6-3.3,9.5-4.7
			c35.2-10.5,66.2-27.5,97.2-49.5c36-25.5,69.8-49.3,106.3-67.6c3-1.5,6.1-3,9.2-4.5c17.6-8.2,36.1-20.3,55.2-21.3
			c3.2-0.2,6.4,0,9.6,0.5c2.7,0.8,6.7,0.8,9.7,2.8c8.3,8.3,17,14.9,26.1,21c2.3,1.5,4.6,3,6.9,4.5c10,6.2,18.6,12.8,27.6,18.3
			c1.8,1.1,3.6,2.2,5.4,3.2c45,28,89,55,124,98c5,7,18,1,24,2c31,7,34,46,54,67c8,7,22,3,29,8c38,28,77,50,119,69
			c9,4.5,16.6,10.5,23.6,17.3c2.3,2.3,4.6,4.6,6.9,7.1c18.5,22.1,39.8,45.4,69.4,51.3c3.4,0.6,6.8,1,10.5,1.1
			c3.9-6.3,9.5-9.6,15.9-11.5c6.4-1.9,13.6-2.4,21.2-3.1c2.6-0.1,5.7-0.2,8.9-0.6c3.3-0.3,6.6-0.8,9.8-1.4
			c9.4-1.7,16.9-7.3,23.4-14.4c2.3-2.4,4.7-5,7.3-7.6c1.6-2.2,3.7-4.1,6-6c2.5-1.9,5.3-3.6,8.3-5.2c11.9-8.2,31.4-11.4,46.3-17.7
			c3-1.3,5.8-2.7,8.3-4.3c12.7-13.1,28-22.4,42.1-32.8c2.8-2.1,5.6-4.3,8.4-6.6c23.8-23.6,56.8-34.6,80.8-56.6
			c1-1.5-0.5-5.8-1.4-10.8c-4.6-14.2,8.4-21.2,18.4-26.2c18-9,41-11,53-28c1.6-2.4,3.3-4.7,4.9-6.9c1.7-2.3,3.4-4.5,5.1-6.6
			c27.6-33.1,77.5-75.6,118.9-61.7c3.2,1.1,6.3,2.5,9.5,4.2c8.8,5.6,18.2,6.9,27.7,6.7c3.2-0.1,6.4-0.4,9.8-0.7
			c31.7-7.7,62.3-3.7,92.2,4.4c3.4,0.9,6.7,1.9,10.1,2.8c30.7,8.2,60.1,17.9,87,35.9c2.7,1.8,5.4,3.7,8,5.7
			c8.8,10.2,22.8,8.2,33.8,15.2c2,2,1,6,3,9c1.6,2.4,3.3,4.7,4.9,7s3.3,4.6,5.3,6.8c2.6,2,5.3,3.8,8.3,5.3c2.9,1.5,6,2.9,9.1,4.1
			c10.1,4.4,22.6,6.5,35.6,8c6.5,0.8,13.1,1.4,19.6,2.1c27.9,5.7,56.8,20.1,78.4,40.9c2.5,2.5,4.9,5.1,7.4,7.9
			c5.5,6.9,10.5,13.9,16.5,19.9c-3,0-4,4-7,3c18,8,39,10,53,21c12,9,1,42,22,49c5,1,10-5,14-3c11,4.5,14,13.8,15.5,24.1
			c0.5,3.5,0.8,7,1.2,10.6c2.3,9.3-2.7,20.3,4.3,28.3c3,2-1,8-2,12c-2,18,1,36-2.7,54c0.1,3.8,0.6,7.6,0.6,11.2c0,3.4,0,6.9,0,10.4
			C2561,777,2561,1501.7,2561,1501.7z"/>
	</g>
</g>
<g>
	<defs>
		<path id="SVGID_3_" d="M2397.4,679.7c-4.4-25-28.4-40-36.4-63.1c-1-2.1-1.9-4.3-2.9-6.5c-6.9-15.5-14.5-32.4-22.1-49.3
			c-1.2-2.6-2.4-5.3-3.5-7.9c-6.5-20.2-25.5-37.2-21.5-59.2c1-9,7-19,2-26c-11-14-28-22-46-24c-44-5-87-9-130.9-11.3
			c-3-0.3-6-0.5-9-0.7c-20.7-0.7-40.2,3.7-61.2,9c-17,3-29-10-43-15c35-19,70-38,111.3-35.1c2.3-0.1,4.7-0.2,7.1-0.3
			c6.2-0.3,12.8-0.6,19.6-0.9c2.3-0.1,4.6-0.2,6.9-0.3c10.1,0.7,19.1-1.3,28.9-1.4c2.5-0.1,4.9-0.2,7.4-0.4c21.5-1,43.4-2.1,63.3-3
			c2.2-0.1,4.4-0.2,6.5-0.3c17,1.7,28-11.3,40-20.3c3-3,9-5,14-4c-3-1.7-5.9-3.4-8.7-5.3s-5.5-3.8-8.2-5.9
			c-3.2-3.8-7.2-6.8-10.2-10.8c-15.3-26.1-31.4-53-60.7-64.7c-3.3-1.3-6.7-2.4-10.3-3.3c-4-1-9-3-11-7c-22-43-59-70-104-81
			c-21-6-43-6-64-12c49-8,99-2,148.2,1.1c2.4,0,4.8,0,7.1,0c25.4,0,43.7,0,43.7,0s3.6,3.1,9.1,7.8c19.9,15.1,42.9,27.1,57.9,47.1
			c10-10,22-19,35.4-25.2c2.2-1.1,3.6-1.7,3.6-1.7s13.4,13.8,28.1,28.9c1.6,1.7,3.3,3.4,4.9,5.1c20,16.9,38,40.9,67.1,34
			c6.8,0,11.9,0,11.9,0l204,144c0,0-58,54.3-121.6,113.9c-1.9,1.8-3.7,3.5-5.6,5.3c-12.8,8.8-11.8,25.8-12.8,39.8c-2,32-57,27-81,49
			c-3,3-6,5-8.1,8.7c-1,2.2-1.6,4.4-1.8,6.8c-1,9.4,2.6,19.8-0.1,28.5c-4,15-24,12-37.3,15.6
			C2399.5,679.2,2397.4,679.7,2397.4,679.7z"/>
	</defs>
	<clipPath id="SVGID_4_">
		<use xlink:href="#SVGID_3_"  style="overflow:visible;"/>
	</clipPath>
	<path class="st2" d="M2561,1501.7H1.1l4-1059.4c0,0,4-1.1,11.2-2.9c2.4-0.6,5.1-1.4,8.2-2.2C73,421.7,122,415.7,174,409.7
		c11-1,20-9,30-15c24-14,50-18,74.3-30.9c3.4-1.7,6.7-3.4,10-5.2c6.6-3.6,13.2-7.6,19.7-11.8c7-4,14-8,21-6c17,5,32,10,49,3
		c2.5-0.6,3.8-1,3.8-1s5.1-2.9,14.4-8.2c1.9-1.1,3.9-2.2,6.2-3.5c25.6-15.4,55.6-18.4,82.6-29.4c2-1,4.3-2,6.1-3.3
		c1.8-1.3,3.4-2.8,3.9-4.7c35-31,75-56,121-70c8-2,17-4,21-11c12.8-20.4,31.1-33,50.4-43.9c3-1.7,6-3.3,9.5-4.7
		c35.2-10.5,66.2-27.5,97.2-49.5c36-25.5,69.8-49.3,106.3-67.6c3-1.5,6.1-3,9.2-4.5c17.6-8.2,36.1-20.3,55.2-21.3
		c3.2-0.2,6.4,0,9.6,0.5c2.7,0.8,6.7,0.8,9.7,2.8c8.3,8.3,17,14.9,26.1,21c2.3,1.5,4.6,3,6.9,4.5c10,6.2,18.6,12.8,27.6,18.3
		c1.8,1.1,3.6,2.2,5.4,3.2c45,28,89,55,124,98c5,7,18,1,24,2c31,7,34,46,54,67c8,7,22,3,29,8c38,28,77,50,119,69
		c9,4.5,16.6,10.5,23.6,17.3c2.3,2.3,4.6,4.6,6.9,7.1c18.5,22.1,39.8,45.4,69.4,51.3c3.4,0.6,6.8,1,10.5,1.1
		c3.9-6.3,9.5-9.6,15.9-11.5c6.4-1.9,13.6-2.4,21.2-3.1c2.6-0.1,5.7-0.2,8.9-0.6c3.3-0.3,6.6-0.8,9.8-1.4
		c9.4-1.7,16.9-7.3,23.4-14.4c2.3-2.4,4.7-5,7.3-7.6c1.6-2.2,3.7-4.1,6-6c2.5-1.9,5.3-3.6,8.3-5.2c11.9-8.2,31.4-11.4,46.3-17.7
		c3-1.3,5.8-2.7,8.3-4.3c12.7-13.1,28-22.4,42.1-32.8c2.8-2.1,5.6-4.3,8.4-6.6c23.8-23.6,56.8-34.6,80.8-56.6
		c1-1.5-0.5-5.8-1.4-10.8c-4.6-14.2,8.4-21.2,18.4-26.2c18-9,41-11,53-28c1.6-2.4,3.3-4.7,4.9-6.9c1.7-2.3,3.4-4.5,5.1-6.6
		c27.6-33.1,77.5-75.6,118.9-61.7c3.2,1.1,6.3,2.5,9.5,4.2c8.8,5.6,18.2,6.9,27.7,6.7c3.2-0.1,6.4-0.4,9.8-0.7
		c31.7-7.7,62.3-3.7,92.2,4.4c3.4,0.9,6.7,1.9,10.1,2.8c30.7,8.2,60.1,17.9,87,35.9c2.7,1.8,5.4,3.7,8,5.7
		c8.8,10.2,22.8,8.2,33.8,15.2c2,2,1,6,3,9c1.6,2.4,3.3,4.7,4.9,7s3.3,4.6,5.5,6.9c18.4,13.3,40.4,19.3,62.5,18.4
		c3.3,0.3,6.6,0.6,9.8,0.9c25.1,5.1,51,17.3,71.7,34.9c2.3,1.9,4.5,4,6.7,6c5.6,5,10.6,12,15.5,18.2c1.3,1.7,2.7,3.3,4.1,4.9
		c1.4,1.6,2.8,3.2,4.3,4.7c-3,0-4,4-7,3c3,1.3,6.1,2.5,9.2,3.6c15.6,5.3,32.1,8.3,43.8,17.4c12,9,1,42,22,49c5,1,10-5,14-3
		c11,4.5,14,13.8,15.5,24.1c0.5,3.5,0.8,7,1.2,10.6c2.3,9.3-2.7,20.3,4.3,28.3c3,2-1,8-2,12c-2,18,1,36-2.7,54
		c0.1,3.8,0.6,7.6,0.6,11.2c0,3.4,0,6.9,0,10.4c0,10.5,0,21.6,0,33.2c0,3.9,0,7.8,0.4,11.8c0.4,3.6,1.4,8.6,4.4,11.6
		c25,26,7,54-4.6,79.7c-0.2,2.3-0.3,4.7-0.3,7C2561,966,2561,1501.7,2561,1501.7z"/>
</g>
</svg>
