<?xml version="1.0" encoding="utf-8"?>
<!-- Generator: Adobe Illustrator 20.0.0, SVG Export Plug-In . SVG Version: 6.00 Build 0)  -->
<svg version="1.1" id="Calque_1" xmlns="http://www.w3.org/2000/svg" xmlns:xlink="http://www.w3.org/1999/xlink" x="0px" y="0px"
	 viewBox="0 0 637 256" style="enable-background:new 0 0 637 256;" xml:space="preserve">
<style type="text/css">
	.st0{fill:#FFFFFF;}
</style>
<g>
	<path class="st0" d="M120.5,72.4c0.2,0.5,0.1,1.1-0.2,1.6c-3.4,6.6-6.6,12.4-9.9,17.5c-3.2,5.1-6.5,9.6-9.9,13.4l-5,5.5
		c-0.1,2.7-0.3,5.2-0.6,7.5c-0.2,2.4-0.5,4.6-0.9,6.8c-1.5,8.7-3.7,15.3-6.8,19.8c-0.8,1.3-1.9,2.6-3.3,4.1
		c-1.4,1.5-2.9,2.8-4.5,4.1c-1.6,1.3-3.4,2.4-5.1,3.3c-1.8,0.9-3.5,1.3-5.2,1.4c-1.7,0-3.3-0.4-4.8-1.4c-1.5-1-2.7-2.7-3.7-5.1
		c-1.1-2.6-1.3-5.5-0.5-8.7c0.9-3.5,2.6-6.8,5.1-9.9c2.7-3.3,5.2-6,7.7-8.3c2.5-2.2,4.9-4.3,7.4-6.2c0.3-2.5,0.5-5.2,0.6-7.9
		c0.1-2.8,0.2-5.7,0.2-8.8c0-3.8-0.1-7.3-0.2-10.7c-0.1-3.4-0.3-6.3-0.5-8.9c-0.2-2.5-0.4-5.3-0.7-8.3c-0.1-0.6,0.2-1.2,0.8-1.8
		c0.6-0.7,1.5-1.3,2.5-1.8c1-0.5,2.2-0.9,3.4-1.2c1.2-0.3,2.4-0.3,3.5-0.2c1.1,0.2,2.1,0.6,2.9,1.3c0.8,0.7,1.3,1.8,1.4,3.2
		c0.3,3.1,0.6,5.9,0.8,8.5c0.2,2.6,0.3,5.6,0.5,9c0.1,3.4,0.2,7,0.2,10.8v2.9c3.1-3.4,6.3-7.5,9.7-12.6c3.4-5,7.1-11.5,11.2-19.4
		c0.3-0.6,0.7-0.9,1.2-1.1c0.5-0.2,1.1-0.1,1.6,0.2C120,71.5,120.4,71.9,120.5,72.4z M66.1,150c0.8-0.4,1.7-1,2.6-1.9
		c0.9-0.9,1.8-1.9,2.7-3.1c0.9-1.2,1.6-2.1,2-2.8c1.4-2,2.6-4.6,3.6-7.7c1-3.1,1.8-6.6,2.5-10.6c-1.8,1.5-3.6,3.1-5.4,4.8
		c-1.8,1.7-3.7,3.8-5.6,6.2c-2.4,3-3.9,5.8-4.3,8.3c-0.4,2.5-0.3,4.5,0.3,6.1C64.8,150.1,65.3,150.4,66.1,150z M87.9,49.5
		c-1-1-2.3-1.5-3.8-1.5c-1.4,0-2.6,0.5-3.6,1.5c-1,1-1.5,2.2-1.5,3.7c0,1.4,0.5,2.6,1.5,3.6c1,1,2.2,1.5,3.6,1.5
		c1.5,0,2.8-0.5,3.8-1.5c1-1,1.5-2.2,1.5-3.6C89.5,51.7,89,50.5,87.9,49.5z"/>
	<path class="st0" d="M157.3,73.6c0.4,0.4,0.6,0.9,0.6,1.5c0,0.6-0.3,1.1-0.7,1.4c-2,1.7-4,2.6-6.2,2.6c-0.6,0-1.2-0.1-1.8-0.2
		c-0.6-0.1-1.2-0.3-1.9-0.5c-0.6-0.3-1.3-0.6-1.9-0.9c-0.7-0.3-1.3-0.7-1.9-1.1c0.4,1.7,0.6,3.5,0.6,5.5c0,4.6-1.2,8.6-3.6,11.9
		c-1.4,1.8-3.1,3.2-5,4.2c-1.9,1-4,1.5-6.2,1.5c-2.7,0-5-0.5-7.2-1.4c-2.1-0.9-4-2.2-5.6-3.9c-1.4-1.5-2.4-3.2-3.1-5.1
		c-0.7-2-1-4.1-1-6.3c0-2.2,0.4-4.4,1.2-6.5c0.8-2.1,1.9-3.9,3.2-5.6c3.3-3.7,7.7-5.6,13.2-5.6c2.3,0,4.4,0.4,6.2,1.3
		c1.8,0.9,3.7,2,5.7,3.4c1.3,1,2.6,2,3.7,2.8c1.2,0.8,2.3,1.4,3.3,1.7c1,0.4,2,0.5,3,0.3c0.9-0.1,1.8-0.6,2.7-1.4
		c0.4-0.4,0.9-0.6,1.5-0.6C156.5,73,156.9,73.2,157.3,73.6z M127.2,84.1c0.3,3.1,1.1,5.2,2.5,6.5s2.8,1.7,4.3,1.5
		c1.5-0.3,2.8-1.3,4-3c1.2-1.7,1.8-4.1,1.8-7.1c0-1.7-0.2-3.3-0.6-4.8c-0.4-1.5-1-2.8-1.9-3.9c-0.8-1-1.8-1.9-2.8-2.5
		c-1.4,0.6-2.6,1.5-3.6,2.5c-1,1-1.8,2.1-2.4,3.3c-0.6,1.2-1,2.4-1.2,3.8C127.1,81.6,127.1,82.9,127.2,84.1z"/>
	<path class="st0" d="M213.7,71c0.6,0.1,1,0.5,1.4,0.9c0.3,0.5,0.5,1,0.3,1.6c0,0.1-0.1,0.9-0.4,2.1c-0.3,1.3-0.7,3-1.2,5.1
		c-0.5,2.1-1.2,4.5-1.9,7.1c-0.7,2.6-1.6,5.3-2.5,8c-2.3,6.6-4.7,11.7-7.1,15.3c-1.1,1.6-2.5,3.2-4.1,4.7c-1.6,1.5-3.6,2.3-5.8,2.3
		c-0.1,0-0.3,0-0.5-0.1c-0.2,0-0.4-0.1-0.5-0.1c-2.3-0.4-4.1-1.5-5.5-3.5c-1.9-2.6-3.1-6.7-3.6-12.3c-0.1-1.7-0.2-3.6-0.3-5.7
		c0-2,0-4.2,0.2-6.6c-0.9,2-1.8,3.7-2.8,5.3c-0.9,1.6-1.9,3-3,4.2c-1.4,1.8-3,3.3-4.8,4.5c-1.8,1.2-3.9,1.7-6.4,1.7
		c-3.9,0-7-1.4-9.3-4.3c-3-3.8-4.3-9.9-3.9-18.2c0.1-3,0.4-5.6,0.8-7.7c0.4-2.1,0.6-3.3,0.7-3.4c0.4-1.4,1.5-2.4,3.1-3
		c1.7-0.6,3.4-0.9,5.2-0.8c1.8,0.1,3.3,0.5,4.7,1.3c1.3,0.8,1.9,2,1.6,3.5c-0.2,1.2-0.4,2.4-0.6,3.8c-0.1,1.2-0.3,2.5-0.5,3.9
		c-0.2,1.4-0.3,3-0.3,4.6c-0.1,4.7,0.2,8,1,9.9s1.9,2.7,3.2,2.4c1.3-0.3,2.7-1.6,4.3-3.7c1.6-2.2,3.1-4.9,4.5-8.3
		c0.8-2.1,1.6-4.2,2.2-6.2c0.6-2,1.2-3.8,1.6-5.5c0.4-1.6,0.8-3.4,1.3-5.5c0.2-0.8,0.7-1.4,1.6-2c0.8-0.6,1.8-1,2.9-1.2
		c1.1-0.2,2.3-0.4,3.5-0.4c1.2,0,2.4,0.2,3.4,0.5c1,0.4,1.9,0.8,2.5,1.5c0.6,0.6,0.9,1.4,0.8,2.4c-0.4,2-0.6,3.9-0.9,5.6
		c-0.2,1.7-0.5,3.6-0.7,5.8c-0.2,2.2-0.5,4.4-0.7,6.8c-0.4,4.9-0.5,9.1-0.4,12.5c0.1,3.4,0.5,5.7,1.1,6.7c0.6,1,1.6,0.7,2.8-1.1
		c1.3-1.8,2.9-5.4,4.8-11c0.9-2.7,1.7-5.3,2.5-7.9c0.7-2.6,1.3-4.9,1.8-7c0.5-2,1-4.3,1.6-6.9c0.1-0.6,0.4-1,0.9-1.4
		C212.6,71,213.1,70.9,213.7,71z"/>
	<path class="st0" d="M261.5,70.5c0.6,0.2,0.9,0.6,1.2,1.1c0.2,0.5,0.2,1.1,0,1.6c-1.1,2.9-2.1,5.5-3.1,7.8
		c-0.9,2.3-2.1,4.9-3.4,7.8c-1.3,2.9-2.7,5.8-4.2,8.8c-0.8,1.7-2,3.9-3.5,6.6c-1.5,2.7-3.1,5.3-5,7.9c-1.9,2.6-4,4.8-6.2,6.7
		c-2.3,1.9-4.6,2.8-7,2.8c-1.1,0-2.2-0.2-3.2-0.7c-1-0.5-1.9-1.3-2.6-2.5c-2.8-4.8-2-15.2,2.5-31.2c1-3.4,2-6.7,3-9.7
		c1-3.1,1.9-5.7,2.7-7.8c-2,0.8-4.5,1.5-7.5,2.3c-3,0.7-6.1,1.1-9.3,1.1c-4.9,0-8.7-1.8-11.5-5.5c-2.3-3.1-3.5-6.8-3.5-11.2
		c0-1.8,0.2-3.5,0.6-5.2c0.4-1.6,1-3.1,1.8-4.4c2-3.2,4.5-4.8,7.7-4.8c2,0,3.6,0.4,4.8,1.2c1.2,0.8,2,1.6,2.6,2.4
		c2.2,3.4,2.4,8.8,0.5,16.1c-0.4,1.4-0.7,2.7-1,3.9c-0.4,1.2-0.7,2.3-1,3.2c2.4-0.1,4.7-0.3,6.9-0.8c2.2-0.5,4.2-1,5.9-1.6
		c1.7-0.6,3.7-1.4,5.8-2.4c0.2-0.1,0.7-0.3,1.5-0.6c0.8-0.2,1.8-0.5,2.9-0.6c1.1-0.2,2.3-0.3,3.5-0.3c1.2,0,2.3,0.1,3.2,0.3
		c0.9,0.2,1.6,0.7,2.1,1.3c0.5,0.6,0.5,1.5,0.2,2.6c-0.8,2.3-1.6,4.4-2.3,6.4c-0.7,2-1.4,4.2-2.3,6.7c-0.8,2.5-1.6,5.2-2.4,8
		c-1.8,6.4-3.1,11.5-3.8,15.3c-0.7,3.8-0.8,6.2-0.3,7.1c0.5,0.9,1.6,0.2,3.3-2c1.7-2.3,4.1-6.3,7.2-12.2c1.5-2.9,2.9-5.8,4.2-8.6
		s2.4-5.4,3.3-7.7c0.9-2.3,2-4.8,3.1-7.6c0.2-0.6,0.6-1,1.1-1.2C260.4,70.3,260.9,70.3,261.5,70.5z M214.8,60.5
		c0.2-0.8,0.4-2.1,0.7-3.9c0.2-1.8,0.3-3.6,0.2-5.3c-0.1-1.7-0.5-3.2-1.2-4.4c-0.7-1.2-1.9-1.5-3.6-1c-1,0.3-1.8,1-2.4,2.2
		c-0.5,1.2-0.9,2.6-1,4.2c-0.1,1.6-0.1,3.3,0.2,5.1c0.2,1.8,0.6,3.5,1,5c0.5,1.5,1,2.8,1.6,3.9c0.6,1,1.3,1.6,2,1.7
		c0.3-0.8,0.7-1.9,1.2-3.2C214,63.5,214.4,62.1,214.8,60.5z"/>
	<path class="st0" d="M325.1,70.5c0.6,0.1,1,0.5,1.2,1c0.2,0.5,0.3,1.1,0.2,1.6c0,0.1-0.2,0.8-0.6,2c-0.4,1.2-0.9,2.8-1.6,4.7
		c-0.7,2-1.5,4.2-2.5,6.6c-1,2.4-2.1,5-3.2,7.5c-3,6.2-5.9,11.1-8.8,14.6c-4,4.8-8,7.1-12.1,7.1c-2.6,0-4.6-0.9-6.1-2.7
		c-1-1.3-1.7-2.9-2-4.9c-0.3-2-0.4-4.3-0.2-6.8c0.2-2.5,0.5-5.2,1-8c0.5-2.9,1.1-5.8,1.7-8.8c0.6-2.6,1.1-5,1.5-7.4
		c0.5-2.3,0.8-4.5,1-6.6c0.2-2.4,0.2-4.2,0.1-5.3c-0.2-1.1-0.4-1.9-0.8-2.2c-0.1-0.1-0.3-0.3-0.5-0.4c-0.2-0.1-0.5-0.2-0.9-0.2
		c-1.1,0-2.4,0.6-3.7,1.7c-1.4,1.2-2.8,3.2-4.5,6.1c-1.6,2.9-3.4,6.9-5.3,11.9c-1.9,5-4,11.3-6.2,18.9c-0.2,1.6-1.1,2.8-2.8,3.7
		c-1.6,0.8-3.4,1.3-5.3,1.5c-1.9,0.2-3.6,0-5.2-0.5c-1.6-0.5-2.4-1.3-2.4-2.5c-0.1-4.1-0.2-7.9-0.1-11.7c0.1-3.7,0.2-7,0.3-9.9
		c0.1-2.8,0.3-6,0.5-9.4c0.1-1.5,0.9-2.6,2.4-3.2c1.5-0.6,3.2-0.8,5-0.6c1.8,0.2,3.5,0.9,5,1.9c1.5,1,2.2,2.4,2.1,4.2
		c0,0.1,0,1.3-0.1,3.8c-0.1,2.4-0.2,6.1-0.3,11c0.8-2.5,1.7-5.1,2.7-7.7c0.9-2.6,1.9-5,3-7.3c1.1-2.4,2.2-4.6,3.2-6.4
		c1-1.9,2.1-3.4,3.2-4.8c1-1.3,2.4-2.5,4-3.5c1.6-1,3.4-1.7,5.2-2.1c1.8-0.5,3.7-0.6,5.6-0.3c1.9,0.2,3.6,0.9,5.2,1.9
		c1.7,1.2,3,2.8,3.9,4.8c0.9,2,1.4,4.3,1.4,6.8s-0.3,5.3-0.8,8.3c-0.6,3-1.2,6-2,9.1c-1.1,5-1.8,9.1-2,12.1c-0.2,3,0,4.8,0.7,5.3
		c0.7,0.5,1.8-0.3,3.4-2.5c1.6-2.2,3.6-5.9,6.1-11.1c1.2-2.5,2.3-5,3.2-7.4c0.9-2.4,1.8-4.6,2.5-6.4c0.7-1.9,1.4-4,2.1-6.4
		c0.1-0.6,0.5-1,1-1.2C324,70.4,324.5,70.3,325.1,70.5z"/>
	<path class="st0" d="M362.2,71c0.6,0.3,0.9,0.7,1,1.2c0.1,0.5,0.1,1.1-0.2,1.6c-2,4-4.1,7.9-6.3,11.7c-2.2,3.8-4.4,7.3-6.7,10.3
		c-1,1.2-2,2.4-3,3.6c-1,1.2-2.2,2.3-3.5,3.2s-2.6,1.7-4,2.4c-1.4,0.6-3,0.9-4.7,0.9c-2.4,0-4.6-1-6.6-3c-2-2-3.6-4.9-4.9-8.6
		c-1.6-4.7-2.5-9.7-2.6-15c-0.1-5.3,0.7-10.4,2.6-15.3c0.7-1.6,1.5-3,2.3-4.2c0.8-1.2,1.8-2.3,2.9-3.1c2.1-1.7,4.4-2.7,6.9-3.1
		c2.5-0.3,4.7-0.1,6.5,0.8c1.4,0.7,2.5,1.7,3.3,2.9c0.8,1.2,1.2,2.6,1.2,4.2c0,4.1-3.8,7.8-11.4,11.1c0.1,1.7,0.2,3.7,0.3,6
		c0.1,2.3,0.3,4.7,0.6,7c0.2,2.3,0.6,4.4,1.1,6.4c0.5,2,1.2,3.4,2,4.4c0.8,0.9,1.9,1.3,3.1,0.9c1.2-0.3,2.7-1.6,4.6-3.9
		c2.2-2.9,4.3-6.3,6.4-10c2.1-3.7,4.2-7.5,6.2-11.4c0.3-0.6,0.7-0.9,1.2-1.1C361.1,70.7,361.6,70.7,362.2,71z M334.1,42
		c0.4-0.6,0.9-1.6,1.5-2.8s1.2-2.6,1.8-3.9s1.2-2.7,1.8-3.9c0.6-1.3,1.1-2.2,1.5-2.9c0.4-0.8,1.3-1,2.7-0.8c1.4,0.2,2.7,0.8,4,1.7
		c1.3,0.9,2.3,1.9,3.1,3.2c0.8,1.3,0.9,2.5,0.3,3.8c-0.6,1.2-1.7,2.3-3.3,3.5c-1.6,1.1-3.2,2.1-4.9,3c-1.7,0.9-3.2,1.6-4.6,2.1
		c-1.4,0.6-2.1,0.9-2.1,0.9c-0.4,0.1-0.7,0.2-0.9,0.2c-0.8,0-1.5-0.4-1.9-1.2c-0.3-0.6-0.3-1,0-1.5C333.4,42.9,333.7,42.5,334.1,42z
		 M336,67.6c1.4-0.7,2.5-1.4,3.4-2c0.8-0.7,1.5-1.3,1.9-1.8c0.4-0.5,0.7-1,0.8-1.4c0.1-0.4,0.2-0.7,0.2-0.9c0-0.8-0.1-1.3-0.2-1.4
		c-0.1-0.1-0.4-0.1-1,0.2C338.8,61.2,337.1,63.6,336,67.6z"/>
	<path class="st0" d="M398.6,71c0.6,0.3,0.9,0.7,1,1.2c0.1,0.5,0.1,1.1-0.2,1.6c-2,4-4.1,7.9-6.3,11.7c-2.2,3.8-4.4,7.3-6.7,10.3
		c-1,1.2-2,2.4-3,3.6c-1,1.2-2.2,2.3-3.5,3.2s-2.6,1.7-4,2.4c-1.4,0.6-3,0.9-4.7,0.9c-2.4,0-4.6-1-6.6-3c-2-2-3.6-4.9-4.9-8.6
		c-1.6-4.7-2.5-9.7-2.6-15c-0.1-5.3,0.7-10.4,2.6-15.3c0.7-1.6,1.5-3,2.3-4.2c0.8-1.2,1.8-2.3,2.9-3.1c2.1-1.7,4.4-2.7,6.9-3.1
		c2.5-0.3,4.7-0.1,6.5,0.8c1.4,0.7,2.5,1.7,3.3,2.9c0.8,1.2,1.2,2.6,1.2,4.2c0,4.1-3.8,7.8-11.4,11.1c0.1,1.7,0.2,3.7,0.3,6
		c0.1,2.3,0.3,4.7,0.6,7c0.2,2.3,0.6,4.4,1.1,6.4c0.5,2,1.2,3.4,2,4.4c0.8,0.9,1.9,1.3,3.1,0.9c1.2-0.3,2.7-1.6,4.6-3.9
		c2.2-2.9,4.3-6.3,6.4-10c2.1-3.7,4.2-7.5,6.2-11.4c0.3-0.6,0.7-0.9,1.2-1.1C397.5,70.7,398,70.7,398.6,71z M372.4,67.6
		c1.4-0.7,2.5-1.4,3.4-2c0.8-0.7,1.5-1.3,1.9-1.8c0.4-0.5,0.7-1,0.8-1.4c0.1-0.4,0.2-0.7,0.2-0.9c0-0.8-0.1-1.3-0.2-1.4
		c-0.1-0.1-0.4-0.1-1,0.2C375.2,61.2,373.5,63.6,372.4,67.6z"/>
</g>
<g>
	<path class="st0" d="M193.7,158.1c1.3,0.5,1.7,1.4,1.4,2.7c-0.1,0.1-0.4,0.9-0.8,2.3c-0.5,1.4-1.2,3.1-2.1,5.3
		c-0.9,2.2-2,4.7-3.2,7.5c-1.3,2.8-2.7,5.7-4.3,8.6c-6.9,12.9-13.8,20.8-20.6,23.5h-0.1c-1.7,0.8-3.5,1.2-5.1,1.2h-0.2
		c-2.6,0-4.9-0.8-6.8-2.5c-1.8-1.6-3.4-3.8-4.6-6.6c-1.9-4.3-3.2-10-3.8-17.3c-1.4,1.3-2.8,2.5-4.1,3.6c-1.4,1.2-2.7,2.2-4.1,3.1
		c-1.4,0.9-2.9,1.7-4.4,2.3c-1.5,0.6-3.2,1-4.9,1.1c-2.9,0.1-5.5-0.9-7.7-2.9c-3.3-3.1-4.9-8.7-4.9-16.8c0-5.9,1.1-10.7,3.2-14.4
		c2.2-3.7,5-5.9,8.6-6.7c2-0.4,4.1-0.3,6.1,0.3c2.1,0.6,4.1,1.7,6.1,3.4c2.1,1.7,4,3.8,5.8,6.4c0.4-5.9,0.9-11.8,1.7-17.8
		c0.8-6,1.9-11.8,3.3-17.3c2-8.7,4.4-15.5,7.1-20.6c3.2-6.1,6.6-9.4,10.3-9.9c2.3-0.2,4.1,0.1,5.5,0.8c1.3,0.8,2.3,1.6,3,2.4
		c2.8,3.8,3.1,10.9,0.9,21.2c-0.6,2.5-1.2,5-1.9,7.6c-0.7,2.6-1.5,5-2.4,7.5c-0.8,2.4-1.7,4.8-2.5,7s-1.6,4.2-2.4,6
		c-1,2.3-2.1,4.7-3.5,7.3c-1.3,2.6-2.8,5.1-4.4,7.7c0,0.6,0,1.1-0.1,1.4c-0.1,3.1-0.2,6.3-0.2,9.8s0.2,6.8,0.4,10
		c0.2,3.2,0.6,6.1,1.2,8.7c0.6,2.6,1.3,4.6,2.3,6c1,1.4,2.2,2,3.6,1.9c1.4-0.1,3.2-1.3,5.2-3.6c3.5-3.7,7.1-8.9,10.7-15.6
		c1.5-2.9,2.9-5.7,4.2-8.4c1.3-2.8,2.3-5.2,3.2-7.3c0.9-2.1,1.8-4.6,2.8-7.3c0.2-0.6,0.6-1,1-1.2C192.6,158,193.2,157.9,193.7,158.1
		z M127.8,174.6c0,4.2,0.3,7.2,1,8.9c0.7,1.7,1.7,2.6,3,2.5c1.3-0.1,2.9-1,4.8-2.6c1.9-1.6,3.9-3.8,6.2-6.3
		c-0.1-1.1-0.1-2.3-0.1-3.4s0-2.3,0-3.5c-0.8-1.3-1.7-2.8-2.7-4.6c-1-1.8-2-3.3-3.1-4.5c-1.1-1.2-2.3-1.7-3.5-1.5
		c-1.2,0.1-2.5,1.5-3.7,4.2C128.4,166.6,127.8,170.3,127.8,174.6z M170.7,119.9c0.9-4.1,1.4-7.2,1.6-9.1c0.2-2,0.1-3.1-0.3-3.4
		c-0.4-0.3-0.9,0.1-1.6,1.2c-0.7,1-1.5,2.5-2.4,4.4c-0.9,1.9-1.7,4.1-2.6,6.5c-0.8,2.4-1.6,4.9-2.2,7.3c-1.1,4.2-2.1,8.6-2.9,13.3
		c-0.8,4.6-1.5,9.3-1.9,14.1c0.6-1.2,1.2-2.3,1.7-3.5c0.5-1.1,1-2.2,1.5-3.4c0.7-1.7,1.5-3.7,2.3-5.9c0.8-2.2,1.7-4.5,2.5-6.9
		c0.8-2.4,1.6-4.8,2.3-7.3C169.5,124.8,170.1,122.3,170.7,119.9z"/>
	<path class="st0" d="M196.1,146.2c1,0,2-0.7,2.8-2c0.8-1.3,1.4-2.9,1.8-4.6c0.4-1.7,0.5-3.5,0.4-5.2c-0.1-1.7-0.6-3-1.4-3.7
		c-1-1-1.3-1.9-0.8-2.8c0.3-0.6,0.7-0.9,1.2-1c0.5-0.1,1.1-0.1,1.6,0.2c1.5,0.8,2.8,2,3.7,3.4c0.9,1.4,1.5,3,1.8,4.7
		c0.3,1.7,0.3,3.4,0.1,5.1c-0.2,1.7-0.7,3.3-1.5,4.7c-0.7,1.4-1.7,2.5-2.9,3.4c-1.2,0.9-2.6,1.3-4.2,1.3c-1.3,0-2.2-0.2-2.7-0.5
		c-0.5-0.3-0.8-0.7-0.8-1.2c0-0.4,0.1-0.8,0.3-1.2C195.7,146.4,195.9,146.2,196.1,146.2z"/>
	<path class="st0" d="M269.1,158.1c0.6,0.1,1,0.5,1.3,0.9c0.3,0.5,0.4,1,0.3,1.6c0,0.1-0.2,0.9-0.5,2.1c-0.4,1.3-0.8,3-1.4,5
		c-0.6,2.1-1.3,4.4-2.2,7.1c-0.9,2.7-1.9,5.3-3,8.1c-0.6,1.6-1.5,3.7-2.6,6.1c-1.1,2.5-2.4,4.9-3.9,7.2c-1.5,2.3-3.2,4.3-5.1,6
		c-1.9,1.7-4,2.5-6.3,2.5c-2.7,0-4.8-1.2-6.4-3.5c-1.8-2.7-2.8-6.8-3-12.6c-0.1-3.7,0.1-8,0.6-12.8c-0.8,1.5-1.8,3.2-3,5
		c-1.2,1.8-2.5,3.4-3.9,4.9c-1.5,1.5-3.1,2.7-4.9,3.7c-1.8,1-3.8,1.5-6.1,1.5c-0.8-0.1-1.8-0.3-2.8-0.8c-1-0.5-2-1.4-2.9-2.7
		c-0.9-1.3-1.6-3.1-2.3-5.5s-0.9-5.3-0.9-9c0-5.8,1-10.5,3-14.2c2.1-3.6,4.8-5.8,8.2-6.6c3.1-0.8,6.2-0.6,9.4,0.7
		c3.2,1.3,6,3.6,8.4,6.7l2-7.8c0.2-1,1.1-1.7,2.7-2c1.6-0.4,3.3-0.4,5,0c1.7,0.4,3.2,1.2,4.5,2.3c1.3,1.2,1.7,2.8,1.3,4.9
		c-0.4,1.3-0.7,2.7-0.9,4.4c-0.3,1.4-0.6,3.1-0.8,5.1c-0.3,2-0.6,4.2-0.9,6.8c-0.6,5-1,9.3-1.1,12.8c-0.1,3.5,0.1,5.9,0.7,7
		c0.6,1.2,1.6,0.9,2.9-0.9c1.3-1.7,3.1-5.4,5.3-11c1-2.7,2-5.3,2.9-7.9c0.9-2.6,1.6-4.9,2.2-7c0.6-2,1.2-4.3,1.8-6.9
		c0.1-0.6,0.5-1,0.9-1.3C268,158,268.5,157.9,269.1,158.1z M230.2,178.7c1.4-2,2.7-4.1,3.9-6.5c1.2-2.4,2.3-4.9,3.2-7.5
		c-0.1-0.1-0.2-0.2-0.2-0.3c-1.8-3-3.5-4.8-5-5.4c-1.5-0.6-2.8-0.3-3.9,0.7c-1.1,1.1-1.9,2.8-2.6,5.2c-0.6,2.4-0.9,5.2-0.9,8.2
		c0,2,0.1,3.8,0.2,5.4c0.1,1.6,0.4,2.7,0.8,3.4c0.4,0.7,1,0.8,1.7,0.4C228.1,182,229,180.7,230.2,178.7z"/>
	<path class="st0" d="M326.1,158.6c0.6,0.1,1,0.5,1.4,0.9c0.3,0.5,0.5,1,0.3,1.6c0,0.1-0.1,0.9-0.4,2.1c-0.3,1.3-0.7,3-1.2,5.1
		c-0.5,2.1-1.2,4.5-1.9,7.1c-0.7,2.6-1.6,5.3-2.5,8c-2.3,6.6-4.7,11.7-7.1,15.3c-1.1,1.6-2.5,3.2-4.1,4.7c-1.6,1.5-3.6,2.3-5.8,2.3
		c-0.1,0-0.3,0-0.5-0.1c-0.2,0-0.4-0.1-0.5-0.1c-2.3-0.3-4.1-1.5-5.5-3.5c-1.9-2.6-3.1-6.7-3.6-12.3c-0.1-1.7-0.2-3.6-0.3-5.7
		c0-2,0-4.2,0.2-6.6c-0.9,2-1.8,3.7-2.8,5.3c-0.9,1.6-1.9,3-3,4.2c-1.4,1.8-3,3.3-4.8,4.5c-1.8,1.2-3.9,1.7-6.4,1.7
		c-3.9,0-7-1.4-9.3-4.3c-3-3.8-4.3-9.9-3.9-18.2c0.1-3,0.4-5.6,0.8-7.7c0.4-2.1,0.6-3.3,0.7-3.4c0.4-1.4,1.5-2.4,3.1-3
		c1.7-0.6,3.4-0.9,5.2-0.8c1.8,0.1,3.3,0.5,4.7,1.3c1.3,0.8,1.9,2,1.6,3.5c-0.2,1.2-0.4,2.4-0.6,3.8c-0.1,1.2-0.3,2.5-0.5,3.9
		c-0.2,1.4-0.3,3-0.3,4.6c-0.1,4.7,0.2,8,1,9.9s1.9,2.7,3.2,2.4c1.3-0.3,2.7-1.6,4.3-3.7c1.6-2.2,3.1-4.9,4.5-8.3
		c0.8-2.1,1.6-4.2,2.2-6.2c0.6-2,1.2-3.8,1.6-5.5c0.4-1.6,0.8-3.4,1.3-5.5c0.2-0.8,0.7-1.4,1.6-2c0.8-0.6,1.8-1,2.9-1.2
		c1.1-0.2,2.3-0.4,3.5-0.4c1.2,0,2.4,0.2,3.4,0.5c1,0.4,1.9,0.8,2.5,1.5c0.6,0.6,0.9,1.4,0.8,2.4c-0.4,2-0.6,3.9-0.9,5.6
		c-0.2,1.7-0.5,3.6-0.7,5.8c-0.2,2.2-0.5,4.4-0.7,6.8c-0.4,4.9-0.5,9-0.4,12.5c0.1,3.4,0.5,5.7,1.1,6.7c0.6,1,1.6,0.7,2.8-1.1
		c1.3-1.8,2.9-5.4,4.8-11c0.9-2.7,1.7-5.3,2.5-7.9c0.7-2.6,1.3-4.9,1.8-7c0.5-2,1-4.3,1.6-6.9c0.1-0.6,0.4-1,0.9-1.4
		C325,158.5,325.6,158.4,326.1,158.6z"/>
	<path class="st0" d="M409.5,97.7c0.4-1.1,1.4-2,2.9-2.6c1.5-0.6,3.1-0.9,4.6-0.8c1.5,0,2.8,0.4,3.8,1.2c1,0.8,1.2,2,0.7,3.7
		c-1.2,3.5-2.8,6.5-5,9c-2.1,2.5-4.6,4.5-7.4,6.1c-2.8,1.6-5.9,2.8-9.3,3.7c-3.4,0.9-6.9,1.4-10.6,1.6c-1,0.1-1.9,0.1-2.8,0.2
		c-0.9,0-1.8,0.1-2.8,0.1c-6.6,0-13.5-0.5-20.6-1.6c-7.2-1.1-14.2-2.2-21-3.4c-0.4,0-0.6,0-0.9-0.1c-0.2,0-0.5-0.1-0.8-0.2
		l-0.8,13.6c-0.2,4.1-0.4,8.4-0.7,12.9c-0.2,4.5-0.5,9.1-0.7,13.7c-0.2,4.6-0.4,9.3-0.5,14c-0.1,4.7-0.2,9.2-0.2,13.6
		c0,2.7,0,5.7,0.1,8.9c0,3.2,0.1,6.3,0.3,9.3c0.2,3,0.4,5.7,0.7,8.3c0.3,2.5,0.7,4.5,1.3,6c0.5,1.4,1.2,2.2,1.9,2.3
		c0.8,0.1,1.7-0.8,2.8-2.7c1.6-2.7,3.2-5.9,4.9-9.6c1.6-3.7,3.3-7.9,5-12.7c1.5-4,2.8-7.9,4-11.8c1.2-3.9,2.2-7.4,3-10.4
		c0.8-3.1,1.7-6.5,2.6-10.3c0.1-0.6,0.5-1,0.9-1.3c0.5-0.3,1-0.4,1.6-0.3c0.6,0.1,1,0.5,1.3,0.9c0.3,0.5,0.4,1,0.3,1.6
		c-1,3.8-1.9,7.3-2.7,10.4c-0.8,3.1-1.9,6.6-3,10.6c-1.2,3.9-2.5,8-4,12c-1.7,4.8-3.5,9.2-5.2,13c-1.7,3.8-3.4,7.2-5,10
		c-4.5,7.5-9,11.4-13.3,11.4h-0.1c-1.9,0-3.6-0.7-5-2.2c-2.3-2.4-4-6.8-5.2-13.4c-1.2-6.6-1.8-15.5-1.8-26.9c0-4.7,0.1-9.5,0.2-14.5
		c0.1-5,0.3-10,0.5-15.1c0.2-5.1,0.5-10,0.7-14.9c0.3-4.9,0.5-9.6,0.7-14l0.8-14.7c-2.2-0.3-4.5-0.5-7.1-0.7
		c-2.5-0.2-4.9-0.2-7.2-0.1c-2.2,0.2-4.2,0.6-5.8,1.3c-1.6,0.7-2.6,1.8-3,3.4c-0.1,0.6-0.7,1-1.6,1.3c-0.9,0.2-1.9,0.3-3,0.2
		c-1-0.1-2-0.4-2.7-0.8c-0.8-0.4-1-1-0.8-1.7c0.8-3.2,2.9-5.5,6.3-6.7c2.7-1.1,6.4-1.6,11-1.6c2.1,0,4.3,0.1,6.7,0.4
		c2.4,0.2,4.9,0.5,7.4,0.9c0.1-0.9,0.1-1.9,0.2-2.9c0-1,0.1-2.1,0.1-3.1c0-1,0.1-2,0.1-2.9c0-0.9,0-1.7,0-2.3c0-1.1,0.7-2,2.2-2.6
		c1.5-0.6,3.1-0.8,4.9-0.7c1.8,0.1,3.4,0.7,4.9,1.6c1.5,0.9,2.3,2.3,2.5,4.2c0.1,1.4,0.2,3.1,0.1,5c-0.1,2-0.1,4-0.2,6.1
		c4,0.7,8.1,1.4,12.2,2.1c4.2,0.7,8.3,1.4,12.5,1.9c4.2,0.5,8.2,0.9,12.3,1.1c4,0.2,7.8,0.2,11.4,0c3.8-0.2,6.8-0.8,9.1-1.7
		c2.3-0.9,4.1-2.2,5.5-3.7c1.4-1.5,2.5-3.3,3.4-5.4C407.6,102.5,408.6,100.2,409.5,97.7z"/>
	<path class="st0" d="M405,161.2c0.4,0.4,0.6,0.9,0.6,1.5c0,0.6-0.3,1.1-0.7,1.4c-2,1.7-4,2.6-6.2,2.6c-0.6,0-1.2-0.1-1.8-0.2
		c-0.6-0.1-1.2-0.3-1.9-0.5c-0.6-0.3-1.3-0.6-1.9-0.9c-0.7-0.3-1.3-0.7-1.9-1.1c0.4,1.7,0.6,3.5,0.6,5.5c0,4.6-1.2,8.6-3.6,11.9
		c-1.4,1.8-3.1,3.2-5,4.2c-1.9,1-4,1.5-6.2,1.5c-2.7,0-5-0.5-7.2-1.4c-2.1-0.9-4-2.2-5.6-3.9c-1.4-1.5-2.4-3.2-3.1-5.1
		c-0.7-2-1-4.1-1-6.3c0-2.2,0.4-4.4,1.2-6.5c0.8-2.1,1.9-3.9,3.3-5.6c3.3-3.7,7.7-5.6,13.2-5.6c2.3,0,4.4,0.4,6.2,1.3
		c1.8,0.9,3.7,2,5.7,3.4c1.3,1,2.6,2,3.7,2.8c1.2,0.8,2.3,1.4,3.3,1.7c1,0.4,2,0.5,3,0.3c0.9-0.1,1.8-0.6,2.7-1.4
		c0.4-0.4,0.9-0.6,1.5-0.6C404.2,160.6,404.7,160.8,405,161.2z M375,171.7c0.3,3.1,1.1,5.2,2.5,6.5c1.4,1.3,2.8,1.7,4.3,1.5
		c1.5-0.3,2.8-1.3,4-3c1.2-1.7,1.8-4.1,1.8-7.1c0-1.7-0.2-3.3-0.6-4.8c-0.4-1.5-1-2.8-1.9-3.9c-0.8-1-1.8-1.9-2.8-2.5
		c-1.4,0.6-2.6,1.5-3.6,2.5c-1,1-1.8,2.1-2.4,3.3c-0.6,1.2-1,2.4-1.2,3.8C374.9,169.1,374.8,170.4,375,171.7z"/>
	<path class="st0" d="M491.4,158.1c0.6,0.1,1,0.5,1.3,1c0.3,0.5,0.3,1.1,0.1,1.6c-0.9,2.8-1.8,5.3-2.6,7.6c-0.8,2.3-1.9,4.8-3,7.7
		c-1.2,2.9-2.5,5.8-3.9,8.7c-3.4,7-6.6,12.5-9.9,16.7c-1,1.2-1.9,2.3-2.9,3.2s-1.9,1.8-2.8,2.5c-0.1,0-0.1,0-0.2,0.1
		c-2.2,1.6-4.5,2.4-6.7,2.4c-2.8,0-4.9-0.9-6.4-2.8c-1-1.2-1.6-2.7-1.8-4.5c-0.2-1.8-0.3-3.8-0.1-6s0.6-4.5,1.2-7
		c0.6-2.5,1.2-5,1.8-7.6c0.6-2.2,1.1-4.2,1.5-6.2c0.5-2,0.8-3.9,1-5.6c0.1-0.4,0.1-1,0.2-1.8c0.1-0.8,0.1-1.6,0-2.4
		c-0.1-0.8-0.3-1.5-0.6-2c-0.3-0.6-0.9-0.8-1.7-0.8c-0.3,0-0.7,0.1-1.3,0.4c-0.6,0.2-1.3,0.9-2.1,1.8c-0.9,1-1.9,2.4-3,4.3
		c-1.2,1.9-2.4,4.5-3.7,7.9c-0.8,1.9-1.5,3.8-2.1,5.6c-0.7,1.9-1.2,3.5-1.7,4.9c-0.5,1.4-0.9,3.1-1.4,4.9c-0.2,0.6-0.7,1-1.5,1.5
		c-0.8,0.4-1.8,0.7-2.9,0.9c-1.2,0.2-2.3,0.3-3.6,0.3c-1.2,0-2.3-0.2-3.4-0.5c-1-0.3-1.8-0.7-2.5-1.2c-0.6-0.5-0.9-1.1-0.7-1.9
		c0.3-1.7,0.5-3.2,0.7-4.7c0.2-1.4,0.3-3.1,0.5-4.9c0.2-1.9,0.3-3.8,0.5-5.9c0.1-1.4,0.2-3,0.3-4.8c0.1-1.8,0.2-3.5,0.2-5.2
		c0-1.7-0.1-3.3-0.2-4.7c-0.1-1.4-0.3-2.4-0.6-3c-0.3-0.6-0.7-0.7-1.2-0.3c-0.5,0.4-1.1,1.6-1.9,3.5c-2,4.8-3.7,9.7-4.9,14.7
		c-1.2,5-2.6,10-4,15c-0.2,0.8-1.1,1.3-2.6,1.7c-1.5,0.4-3.2,0.5-5,0.5c-1.8-0.1-3.4-0.3-4.9-0.8c-1.5-0.5-2.2-1.1-2.2-1.9
		c-0.1-4.1-0.2-8-0.1-11.8c0.1-3.8,0.2-7.2,0.3-10.2c0.1-3,0.3-6.3,0.6-9.9c0-1,0.8-1.8,2.3-2.3c1.5-0.5,3.2-0.6,5-0.4
		c1.8,0.2,3.5,0.8,5,1.6c1.5,0.9,2.3,2.1,2.3,3.8c0,0.1,0,1.1-0.1,3.2c-0.1,2.1-0.2,5.2-0.3,9.3c0.8-2.5,1.5-5,2.3-7.4
		c0.8-2.4,1.6-4.7,2.5-6.8c1.5-3.9,3.2-7,4.9-9.1c2.2-2.7,4.6-4.1,7.2-4.1c2.7,0,4.8,1,6.5,3c1,1.2,1.8,2.7,2.4,4.6
		c0.6,1.9,1.1,4.1,1.4,6.7c0.1,1.7,0.2,3.5,0.3,5.5c0,2,0,4.1-0.2,6.3c0.8-1.7,1.6-3.3,2.4-4.8c0.8-1.4,1.6-2.7,2.4-3.8
		c1.3-1.7,2.8-3.1,4.8-4.2c1.9-1,3.9-1.7,6-2c2.1-0.3,4.2-0.2,6.2,0.3c2,0.5,3.8,1.4,5.2,2.7c2,1.9,3,4.6,3,8.3
		c0,2.2-0.3,4.5-0.9,7.1c-0.6,2.6-1.3,5.3-2,8.1c-0.2,0.9-0.5,2-0.9,3.4c-0.4,1.4-0.7,2.8-1,4.2c-0.3,1.5-0.6,2.9-0.8,4.2
		c-0.2,1.3-0.3,2.4-0.2,3.1c0.1,0.7,0.4,1.1,0.8,1.1c0.5,0,1.2-0.6,2.1-1.9c1.5-1.9,3.1-4.2,4.7-6.8c1.6-2.7,3.2-5.7,4.8-9
		c1.3-2.9,2.6-5.8,3.7-8.6c1.2-2.8,2.1-5.3,3-7.5c0.8-2.2,1.7-4.7,2.6-7.4c0.2-0.6,0.6-1,1-1.2C490.3,158,490.8,157.9,491.4,158.1z"
		/>
	<path class="st0" d="M555.2,158.1c0.6,0.1,1,0.5,1.2,1c0.2,0.5,0.3,1.1,0.2,1.6c0,0.1-0.2,0.8-0.6,2c-0.4,1.2-0.9,2.8-1.6,4.7
		c-0.7,2-1.5,4.2-2.5,6.6c-1,2.4-2.1,5-3.2,7.5c-3,6.2-5.9,11.1-8.8,14.6c-4,4.8-8,7.1-12.1,7.1c-2.6,0-4.6-0.9-6.1-2.7
		c-1-1.3-1.7-2.9-2-4.9c-0.3-2-0.4-4.3-0.2-6.8c0.2-2.5,0.5-5.2,1-8c0.5-2.9,1.1-5.8,1.7-8.8c0.6-2.6,1.1-5,1.5-7.4
		c0.5-2.3,0.8-4.5,1-6.6c0.2-2.4,0.2-4.2,0.1-5.3c-0.2-1.1-0.4-1.9-0.8-2.2c-0.1-0.1-0.3-0.3-0.5-0.4c-0.2-0.1-0.5-0.2-0.9-0.2
		c-1.1,0-2.4,0.6-3.7,1.7c-1.4,1.2-2.8,3.2-4.5,6.1c-1.6,2.9-3.4,6.9-5.3,11.9c-1.9,5-4,11.3-6.2,18.9c-0.2,1.6-1.1,2.8-2.8,3.7
		c-1.6,0.8-3.4,1.3-5.3,1.5c-1.9,0.2-3.6,0-5.2-0.5c-1.6-0.5-2.4-1.3-2.4-2.5c-0.1-4.1-0.2-7.9-0.1-11.7c0.1-3.7,0.2-7,0.3-9.9
		c0.1-2.8,0.3-6,0.5-9.4c0.1-1.5,0.9-2.6,2.4-3.2c1.5-0.6,3.2-0.8,5-0.6c1.8,0.2,3.5,0.9,5,1.9c1.5,1,2.2,2.4,2.1,4.2
		c0,0.1,0,1.3-0.1,3.8c-0.1,2.4-0.2,6.1-0.3,11c0.8-2.5,1.7-5.1,2.7-7.7c0.9-2.6,1.9-5,3-7.3c1.1-2.4,2.2-4.6,3.2-6.4
		c1-1.9,2.1-3.4,3.2-4.8c1-1.3,2.4-2.5,4-3.5c1.6-1,3.4-1.7,5.2-2.1c1.8-0.5,3.7-0.6,5.6-0.3c1.9,0.2,3.6,0.9,5.2,1.9
		c1.7,1.2,3,2.8,3.9,4.8c0.9,2,1.4,4.3,1.4,6.8c0,2.5-0.3,5.3-0.8,8.3c-0.6,3-1.2,6-2,9.1c-1.1,5-1.8,9-2,12.1c-0.2,3,0,4.8,0.7,5.3
		c0.7,0.5,1.8-0.3,3.4-2.5c1.6-2.2,3.6-5.9,6.1-11.1c1.2-2.5,2.3-5,3.2-7.4c0.9-2.4,1.8-4.6,2.5-6.4c0.7-1.9,1.4-4,2.1-6.4
		c0.1-0.6,0.5-1,1-1.2C554.1,158,554.7,157.9,555.2,158.1z"/>
	<path class="st0" d="M592.3,158.6c0.6,0.3,0.9,0.7,1,1.2c0.1,0.5,0.1,1.1-0.2,1.6c-2,4-4.1,7.9-6.3,11.7c-2.2,3.8-4.4,7.3-6.7,10.3
		c-1,1.2-2,2.4-3,3.6c-1,1.2-2.2,2.3-3.5,3.2s-2.6,1.7-4,2.4c-1.4,0.6-3,0.9-4.7,0.9c-2.4,0-4.6-1-6.6-3c-2-2-3.6-4.9-4.9-8.6
		c-1.6-4.7-2.5-9.7-2.6-15c-0.1-5.3,0.7-10.4,2.6-15.3c0.7-1.6,1.5-3,2.3-4.2c0.8-1.2,1.8-2.3,2.9-3.1c2.1-1.7,4.4-2.7,6.9-3.1
		c2.5-0.3,4.7-0.1,6.5,0.8c1.4,0.7,2.5,1.7,3.3,2.9c0.8,1.2,1.2,2.6,1.2,4.2c0,4.1-3.8,7.8-11.4,11.1c0.1,1.7,0.2,3.7,0.3,6
		c0.1,2.3,0.3,4.7,0.6,7c0.2,2.3,0.6,4.4,1.1,6.4c0.5,2,1.2,3.4,2,4.3c0.8,0.9,1.9,1.3,3.1,0.9c1.2-0.3,2.7-1.6,4.6-3.9
		c2.2-2.9,4.3-6.3,6.4-10c2.1-3.7,4.2-7.5,6.2-11.4c0.3-0.6,0.7-0.9,1.2-1.1C591.2,158.2,591.8,158.3,592.3,158.6z M566.1,155.1
		c1.4-0.7,2.5-1.4,3.4-2c0.8-0.7,1.5-1.3,1.9-1.8c0.4-0.5,0.7-1,0.8-1.4c0.1-0.4,0.2-0.7,0.2-0.9c0-0.8-0.1-1.3-0.2-1.4
		c-0.1-0.1-0.4-0.1-1,0.2C569,148.8,567.3,151.2,566.1,155.1z"/>
</g>
</svg>
