<?xml version="1.0" encoding="utf-8"?>
<!-- Generator: Adobe Illustrator 20.0.0, SVG Export Plug-In . SVG Version: 6.00 Build 0)  -->
<svg version="1.1" id="Calque_1" xmlns="http://www.w3.org/2000/svg" xmlns:xlink="http://www.w3.org/1999/xlink" x="0px" y="0px"
	 viewBox="0 0 2560 1193.9" style="enable-background:new 0 0 2560 1193.9;" xml:space="preserve">
<style type="text/css">
	.st0{fill:#F4483E;}
	.st1{clip-path:url(#SVGID_2_);fill:#F46157;}
	.st2{clip-path:url(#SVGID_4_);fill:#F46157;}
	.st3{clip-path:url(#SVGID_6_);fill:#F46157;}
</style>
<image style="display:none;overflow:visible;enable-background:new    ;" width="1031" height="655" xlink:href="C6425F6C.jpg"  transform="matrix(2.4829 0 0 2.7152 9.293525e-02 -508.2833)">
</image>
<path class="st0" d="M1.1,211.2c11.9-5.9,24.9-8.9,36.9-17c80-56.7,149-110.3,231.6-153.1c10.5-6.2,20.8-12.5,30.9-19.3
	S320.5,7.7,330,0c43,41.5,85,85,138,113.3c9.5,5.1,20,7.3,30.7,9.1c10.8,1.7,21.8,2.9,32.3,5.8c9.8,2.2,19.5,4.5,29.1,6.6
	c67.3,15.5,134.6,29.1,197,59.9c7.1,3.8,14.2,7.8,21.4,11.5s14.6,7.3,22.3,10.3c26,10.1,50-8.1,67.4-26.2
	c5.3-5.5,10.4-11.1,15.7-16.6c15.8-16.6,32.7-31.5,56.4-37c7.7-1.6,15.9-2,24.5-1c12,1,23.5,4.9,34.9,9.4
	c91.3,48.1,191.3,69.3,292.3,84.1c9.9,2.1,19.8,4.3,29.7,6.3c9.9,2,19.9,4,29.8,6.1c10,2.2,19.9,4.5,29.9,6.4
	c29.9,6,60.2,10.1,91,11.4c10.1,0.1,20.2,0,30.3-0.1c30.3-0.5,60.7-1.6,90.3-1.3c21,0,42-8.1,59-22.3c5-4,9.7-8.4,14.3-12.9
	c22.8-22.4,41.8-48.1,72.4-59c9-3.1,18.2-5,27.6-5.9c65.4-5.8,136,34.3,194.8,65.5c17,9.1,34,15.2,50.6,21.1
	c6.3,2.3,12.7,4.8,19,7.1c6.3,2.3,12.6,4.8,18.9,7.1c14,5.3,27.9,10.5,41.6,15.7c84,26.9,177,86.6,263.7,37.4
	c8.4-3.5,16.7-7.5,24.9-11.5c41.1-20.3,80.4-45.1,120.4-68.1c11.6-6.1,22.1-11.6,31-16.3c17.8-9.3,28.9-15.2,28.9-15.2v993.2H0.1
	c0,0,0-530.2,0-814.3c0-6.9,0-13.7,0-20.2C1,314.6,1,270.1,1.2,225.8C1.2,216.4,1.1,211.2,1.1,211.2z"/>
<g>
	<g>
		<defs>
			<path id="SVGID_1_" d="M336.8-5.6C355,59.9,307,101.9,256,130.9c-6,6-11,12-16.4,17.7c-5,6.4-9.3,13.4-12.6,21.3c-4,9,9,19,16,15
				c6.5-3.5,12.6-7.9,18.6-12.5s11.9-9.4,18.1-13.8c12.3-10.7,29.3-17.7,45.3-16.7s30,13,33,29c3,13-6,27-19.4,30.2
				c-10.8,3.6-24.1,3.8-34.6,2.8c22,16,49,46,77,26c7-4.5,8-11.3,8.4-18.7c-0.4-14.3,3.6-29.3,16.6-33.3c18-7,36,3,52.1,11.9
				c6.9,4.1,10.9,11.1,11,20c0.6,6.9,0.4,14.1,2.9,20.1c13-14,33-16,51-15c39,1,91,53,113,18c22-34,49-46,85-45
				c-4-20-9-40-12.2-60.1c-1.1-5.7-2.3-11.7-3.4-17.9C690,29.4,668-85.5,668-85.5s-54.8,13.2-119.9,28.9c-10.8,2.6-22,5.3-33.2,8
				c-51,12.5-102,22.5-153.3,36.9C346.1-7.9,336.8-5.6,336.8-5.6z"/>
		</defs>
		<clipPath id="SVGID_2_">
			<use xlink:href="#SVGID_1_"  style="overflow:visible;"/>
		</clipPath>
		<path class="st1" d="M2.6,208.2c11.9-5.8,24.9-8.8,36.9-16.8c8-5.6,15.9-11.2,23.7-16.7s15.5-11,23.2-16.5
			c14.9-10.3,29.8-20.8,44.9-31.1c7.5-5.2,15.1-10.4,22.6-15.5c7.6-5.1,15.2-10.2,22.8-15.3c13.4-9.5,27.3-18.1,41.3-26.4
			c7-4.1,14-8.2,21-12.1c32-18.9,64-35.9,94-57.9c56,53,114,121,195.9,126.2c6.5,1.2,13,2.4,19.5,3.6
			c78.6,18.2,159.6,34.2,231.7,73.5c7.2,3.7,14.6,7.2,22.3,10.2c26,10,50-8,67.4-25.9c5.3-5.4,10.4-11,15.7-16.4
			c15.8-16.4,32.7-31.1,56.4-36.6c7.7-1.6,15.9-2,24.5-1c12,1,23.5,4.8,34.9,9.3c91.1,47.7,191.1,68.7,292.1,83.3
			c9.9,2.1,19.8,4.2,29.7,6.2c9.9,2,19.9,4,29.8,6c10,2.2,19.9,4.4,29.9,6.3c29.9,5.9,60.2,10,91,11.3c10.1,0.1,20.2,0,30.3-0.1
			c30.3-0.5,60.7-1.6,90.3-1.3c21,0,42-8,59-22c5-4,9.7-8.3,14.3-12.7c22.8-22.1,41.8-47.5,72.4-58.3c9-3.1,18.2-4.9,27.6-5.8
			c65.4-5.7,136,33.9,194.8,64.7c17,9,34,15,50.6,20.8c6.3,2.3,12.7,4.7,19,7c6.3,2.3,12.6,4.7,18.9,7c14,5.2,27.9,10.4,41.6,15.5
			c84,26.6,177,85.6,263.7,37c8.4-3.5,16.7-7.4,24.9-11.4c41.1-20.1,80.4-44.6,120.4-67.3c11.6-6,22.1-11.5,31-16.1
			c17.8-9.2,28.9-15,28.9-15v981.4H1.6c0,0,0-523.9,0-804.6c0-6.8,0-13.5,0-20c0.9-44.4,0.9-88.4,1.1-132.1
			C2.7,213.3,2.6,208.2,2.6,208.2z"/>
	</g>
</g>
<g>
	<g>
		<defs>
			<path id="SVGID_3_" d="M992,146.5c0,0,8.4,10.9,19.3,25.5c4.4,6,8.9,12,13.5,18.1c4.6,6.1,9.2,12.2,13.8,18.3
				c4.7,6.2,9.3,12.4,13.9,18.4s9.6,12.1,13.6,18.1c-13,0-27-4-39.7-1.4c-6.6,0.5-13.3,1.4-19.8,2.7c-19.5,4.1-38,12.6-53.5,27.6
				c-10,9-26,0-39,1c8.8,1.2,17.7,2.3,26.6,3.3c8.9,1.1,17.8,2.2,26.6,3.4c9.2,1.3,18.2,2.9,27.2,4.7c9,1.8,17.8,3.8,26.7,5.9
				c20,4.7,40,12.7,60,11.7c9,0,13-15,21-13c26,6.5,51.5,15,76.9,23.8c8.5,2.9,16.9,5.9,25.4,8.9c17.7,5.3,34.7,12.3,52.7,19.3
				c-19-10-37-23-46.6-42.9c-2.6-6.1-3.9-12.8-3.4-20.1c1-8,5-17,11-19c7-1.8,14-2.6,21-3c7-0.3,14-0.1,21,0.3
				c32.7,1.8,64.9,6.4,97.2,11.3c8.1,1.2,16.2,2.5,24.2,3.7c25.8,3.3,51.4,7.7,77.1,12.5c8.5,1.6,17.1,3.2,25.6,4.8
				c7.5,1.1,14.9,2.6,22.3,4.3c38.6,12,87.6,17,116.6-19.4c7.5-6.5,15-13,15-13l-20-40L992,146.5z"/>
		</defs>
		<clipPath id="SVGID_4_">
			<use xlink:href="#SVGID_3_"  style="overflow:visible;"/>
		</clipPath>
		<path class="st2" d="M2.6,208.2c11.9-5.8,24.9-8.8,36.9-16.8c8-5.6,15.9-11.2,23.7-16.7s15.5-11,23.2-16.5
			c14.9-10.3,29.8-20.8,44.9-31.1c7.5-5.2,15.1-10.4,22.6-15.5c7.6-5.1,15.2-10.2,22.8-15.3c13.4-9.5,27.3-18.1,41.3-26.4
			c7-4.1,14-8.2,21-12.1c32-18.9,64-35.9,94-57.9c56,53,114,121,195.9,126.2c6.5,1.2,13,2.4,19.5,3.6
			c78.6,18.2,159.6,34.2,231.7,73.5c7.2,3.7,14.6,7.2,22.3,10.2c6.5,2.5,12.9,3.3,19.1,2.7c6.2-0.6,12.2-2.4,17.9-5.2
			c9.3-4,17.2-10.5,24.6-17.7c7.4-7.2,14.3-15.2,21.6-22.1c7.9-8.2,16.1-16,25.2-22.4c9.2-6.4,19.3-11.5,31.2-14.2
			c7.7-1.6,15.9-2,24.5-1c12,1,23.5,4.8,34.9,9.3c9.1,4.8,18.3,9.3,27.6,13.5c9.3,4.3,18.6,8.3,28.1,12.1
			c9.4,3.8,18.9,7.3,28.5,10.7c67,23.5,137.2,36.8,207.9,47c9.9,2.1,19.8,4.2,29.7,6.2c9.9,2,19.9,4,29.8,6
			c10,2.2,19.9,4.4,29.9,6.3c29.9,5.9,60.2,10,91,11.3c10.1,0.1,20.2,0,30.3-0.1c30.3-0.5,60.7-1.6,90.3-1.3c21,0,42-8,59-22
			c5-4,9.7-8.3,14.3-12.7c22.8-22.1,41.8-47.5,72.4-58.3c9-3.1,18.2-4.9,27.6-5.8c65.4-5.7,136,33.9,194.8,64.7
			c17,9,34,15,50.6,20.8c6.3,2.3,12.7,4.7,19,7c6.3,2.3,12.6,4.7,18.9,7c14,5.2,27.9,10.4,41.6,15.5c84,26.6,177,85.6,263.7,37
			c8.4-3.5,16.7-7.4,24.9-11.4c41.1-20.1,80.4-44.6,120.4-67.3c11.6-6,22.1-11.5,31-16.1c17.8-9.2,28.9-15,28.9-15v981.4H1.6
			c0,0,0-523.9,0-804.6c0-6.8,0-13.5,0-20c0.9-44.4,0.9-88.4,1.1-132.1C2.7,213.3,2.6,208.2,2.6,208.2z"/>
	</g>
</g>
<g>
	<defs>
		<path id="SVGID_5_" d="M1813.3,158.3c0,0-0.3,2.4-0.8,6.7c-1.5,17.9-8.5,34.9-15.5,51.9c-4,12-9,25-7,38c3,21,1,40,0,61
			c0,3.4,0.1,6.8,0.3,10.3c1.3,24.4,8,50.6,30.7,63.7c6,3.7,12.4,4.6,19.1,4.1c3.3-0.2,6.8-0.7,10.3-1.4c36.6-4.5,74.1-3,111.2-9
			c3.4-0.5,6.8-1.1,10.1-1.8c18.2-8,36.2-11,54.2-18c8-3,5-19,11-20c8.3-1.5,17.1,3.2,25.9,5.3c2.9,0.7,5.9,1.2,8.8,1
			c16.8,2.4,33.9,3.7,50.4,6.5c3.3,0.5,6.6,1.2,9.8,1.8c3,0.7,6,1.5,8.9,2.3c29.1,5,58.1,20,87.1,10c-8-6-17-12-26-15
			c-21-7-42-12-59.9-23.7c-2.8-1.5-5.5-3-8.1-4.5c-2.5-1.3-5-2.7-7.5-4c-16.6-8.8-32.9-17.5-47.1-25.1c-2-1.1-4-2.1-5.9-3.2
			c-24.5-11.5-46.5-25.5-55.5-51.1c-1.2-2.2-2.4-4.4-3.6-6.7c-18.2-34-42.4-79.4-42.4-79.4H1813.3z"/>
	</defs>
	<clipPath id="SVGID_6_">
		<use xlink:href="#SVGID_5_"  style="overflow:visible;"/>
	</clipPath>
	<path class="st3" d="M2.6,208.2c11.9-5.8,24.9-8.8,36.9-16.8c8-5.6,15.9-11.2,23.7-16.7s15.5-11,23.2-16.5
		c14.9-10.3,29.8-20.8,44.9-31.1c7.5-5.2,15.1-10.4,22.6-15.5c7.6-5.1,15.2-10.2,22.8-15.3c13.4-9.5,27.3-18.1,41.3-26.4
		c7-4.1,14-8.2,21-12.1c32-18.9,64-35.9,94-57.9c56,53,114,121,195.9,126.2c6.5,1.2,13,2.4,19.5,3.6
		c78.6,18.2,159.6,34.2,231.7,73.5c7.2,3.7,14.6,7.2,22.3,10.2c6.5,2.5,12.9,3.3,19.1,2.7c6.2-0.6,12.2-2.4,17.9-5.2
		c9.3-4,17.2-10.5,24.6-17.7c7.4-7.2,14.3-15.2,21.6-22.1c7.9-8.2,16.1-16,25.2-22.4c9.2-6.4,19.3-11.5,31.2-14.2
		c7.7-1.6,15.9-2,24.5-1c12,1,23.5,4.8,34.9,9.3c9.1,4.8,18.3,9.3,27.6,13.5c9.3,4.3,18.6,8.3,28.1,12.1c9.4,3.8,18.9,7.3,28.5,10.7
		c67,23.5,137.2,36.8,207.9,47c9.9,2.1,19.8,4.2,29.7,6.2c9.9,2,19.9,4,29.8,6c10,2.2,19.9,4.4,29.9,6.3c29.9,5.9,60.2,10,91,11.3
		c10.1,0.1,20.2,0,30.3-0.1c30.3-0.5,60.7-1.6,90.3-1.3c21,0,42-8,59-22c5-4,9.7-8.3,14.3-12.7c22.8-22.1,41.8-47.5,72.4-58.3
		c9-3.1,18.2-4.9,27.6-5.8c65.4-5.7,136,33.9,194.8,64.7c14.2,7.5,28.3,12.9,42.3,17.9c2.8,1,5.6,2,8.3,2.9
		c14.8,5.7,29.8,10.7,44.9,16.6c2.3,0.9,4.7,1.7,7,2.6c9.3,3.5,18.5,6.9,27.6,10.3c28,8.9,57,21.3,86.4,32.2c3.7,1.4,7.4,2.7,11,4
		c10.8,4,21.8,7,33.4,10.5c3.7,1,7.4,1.9,11.2,2.8c40.9,9.5,82,9.8,121.7-12.5c8.4-3.5,16.7-7.4,24.9-11.4
		c41.1-20.1,80.4-44.6,120.4-67.3c11.6-6,22.1-11.5,31-16.1c17.8-9.2,28.9-15,28.9-15v981.4H1.6c0,0,0-523.9,0-804.6
		c0-6.8,0-13.5,0-20c0.9-44.4,0.9-88.4,1.1-132.1C2.7,213.3,2.6,208.2,2.6,208.2z"/>
</g>
</svg>
